<svg width="64" height="64" viewBox="0 0 64 64" xmlns="http://www.w3.org/2000/svg">
    <g fill="#F5F5F5" fill-rule="nonzero">
        <path d="M32 0C14.355 0 0 14.355 0 32s14.355 32 32 32 32-14.355 32-32S49.645 0 32 0zm0 61C16.01 61 3 47.992 3 32 3 16.01 16.01 3 32 3s29 13.01 29 29c0 15.992-13.01 29-29 29z"/>
        <path d="M43.577 20.423c.517.517.56 1.329.13 1.895l-.13.148L34.043 32l9.534 9.534a1.445 1.445 0 0 1-1.895 2.172l-.148-.13L32 34.044l-9.534 9.534a1.445 1.445 0 0 1-2.172-1.895l.13-.148L29.956 32l-9.534-9.534a1.445 1.445 0 0 1 1.895-2.172l.148.13L32 29.956l9.534-9.534a1.445 1.445 0 0 1 2.043 0z"/>
    </g>
</svg>
