<svg width="25" height="25" viewBox="0 0 25 25" xmlns="http://www.w3.org/2000/svg">
    <path d="M12.496 0c3.972 0 7.06 1.036 9.184 3.08C23.885 5.205 25 8.375 25 12.503c0 4.128-1.119 7.294-3.32 9.417C19.557 23.964 16.468 25 12.496 25c-3.971 0-7.06-1.036-9.18-3.08C1.115 19.8 0 16.632 0 12.504c0-4.128 1.115-7.298 3.316-9.42C5.436 1.04 8.528 0 12.496 0zm0 1.386c-7.373 0-11.114 3.74-11.114 11.12 0 7.372 3.74 11.112 11.114 11.112 7.378 0 11.122-3.74 11.122-11.113 0-7.376-3.744-11.12-11.122-11.12zm5.91 5.638c.289.217.35.627.132.915l-7.331 9.816a.65.65 0 0 1-.513.264h-.014a.654.654 0 0 1-.513-.246L6.81 13.556a.655.655 0 0 1 .103-.919.656.656 0 0 1 .92.103l2.828 3.555 6.829-9.14a.654.654 0 0 1 .915-.131z" fill="#59C2C9" fill-rule="nonzero"/>
</svg>
