<svg width="64" height="64" viewBox="0 0 64 64" xmlns="http://www.w3.org/2000/svg">
    <path d="M32 7.86c1.55 0 2.807-1.174 2.807-2.62V2.62C34.807 1.174 33.549 0 32 0c-1.55 0-2.807 1.174-2.807 2.62v2.62c0 1.446 1.258 2.62 2.807 2.62zm-2.807 53.52c0 1.446 1.258 2.62 2.807 2.62 1.55 0 2.807-1.174 2.807-2.62v-2.62c0-1.446-1.258-2.62-2.807-2.62-1.55 0-2.807 1.174-2.807 2.62v2.62zm21.333-37.24c-1.55 0-2.807 1.216-2.807 2.714v10.854c0 1.497 1.258 2.713 2.807 2.713 1.55 0 2.807-1.216 2.807-2.713V26.854c0-1.498-1.257-2.714-2.807-2.714zm10.667-8.42c-1.55 0-2.807 1.194-2.807 2.666v26.667c0 1.472 1.258 2.666 2.807 2.666 1.55 0 2.807-1.194 2.807-2.666V18.386c0-1.472-1.258-2.667-2.807-2.667zM44.351 42.273v-21.11c0-1.456-1.258-2.638-2.807-2.638-1.55 0-2.807 1.182-2.807 2.639v21.109c0 1.456 1.257 2.638 2.807 2.638s2.807-1.182 2.807-2.638zM13.474 40.42c1.55 0 2.807-1.216 2.807-2.713V26.854c0-1.498-1.258-2.714-2.807-2.714-1.55 0-2.807 1.216-2.807 2.714v10.854c0 1.497 1.257 2.713 2.807 2.713zm11.79 1.853v-21.11c0-1.456-1.258-2.638-2.808-2.638-1.55 0-2.807 1.182-2.807 2.639v21.109c0 1.456 1.258 2.638 2.807 2.638 1.55 0 2.807-1.182 2.807-2.638zM2.806 15.719C1.257 15.72 0 16.914 0 18.386v26.667c0 1.472 1.258 2.666 2.807 2.666 1.55 0 2.807-1.194 2.807-2.666V18.386c0-1.472-1.258-2.667-2.807-2.667zm26.386 32.12c0 1.484 1.258 2.687 2.807 2.687 1.55 0 2.807-1.203 2.807-2.686V15.599c0-1.483-1.258-2.687-2.807-2.687-1.55 0-2.807 1.204-2.807 2.687v32.24z" fill="#FFF" fill-rule="evenodd"/>
</svg>
