<svg width="64" height="64" viewBox="0 0 64 64" xmlns="http://www.w3.org/2000/svg">
    <g fill="#F5F5F5" fill-rule="nonzero">
        <path d="M32 0C14.355 0 0 14.355 0 32s14.355 32 32 32 32-14.355 32-32S49.645 0 32 0zm0 61C16.01 61 3 47.992 3 32 3 16.01 16.01 3 32 3s29 13.01 29 29c0 15.992-13.01 29-29 29z"/>
        <path d="M31.94 23.532c1.042 0 1.895.844 1.895 1.895v19.678a1.895 1.895 0 1 1-3.79 0V25.427a1.9 1.9 0 0 1 1.894-1.895zm.017-6.53a2.009 2.009 0 0 1 2.085 1.947 2.009 2.009 0 0 1-1.948 2.084h-.146a2.025 2.025 0 0 1-1.947-2.084A2.035 2.035 0 0 1 31.957 17z"/>
    </g>
</svg>
