<svg width="36" height="28" viewBox="0 0 36 28" xmlns="http://www.w3.org/2000/svg">
    <path d="M16.596 19.535c-.328.33-.618.57-1.014.57-.421 0-.767-.233-1.062-.64l-3.712-5.643c-.177-.222-.413-.558-.838-.554-.417.002-.66.31-.838.54L.282 25.832c-.177.231-.282.519-.282.833C0 27.422.611 28 1.364 28h32.853c1.53 0 2.294-1.045 1.405-2.48L25.575 9.554c-.177-.221-.412-.558-.838-.554-.418.003-.66.31-.839.54l-7.302 9.976M4.226 8.986 3.763 9C2.043 8.975 0 8.166 0 4.481 0 .821 2.02.013 3.706 0l.496.013C5.934.064 8 .873 8 4.52c0 3.632-2.054 4.442-3.774 4.467" fill="#FFF" fill-rule="evenodd" fill-opacity=".4"/>
</svg>
